<svg width="235" height="9" fill="none" xmlns="http://www.w3.org/2000/svg"><path d="M0 8.25L7.505 0l.682.75L.682 9 0 8.25z" fill="#fff"/><path d="M14.328 9L6.823.75 7.505 0l7.505 8.25-.682.75z" fill="#fff"/><path d="M13.777 8.25L21.282 0l.682.75L14.459 9l-.682-.75z" fill="#fff"/><path d="M28.104 9L20.6.75l.683-.75 7.504 8.25-.682.75z" fill="#fff"/><path d="M27.499 8.25L35.004 0l.682.75L28.181 9l-.682-.75z" fill="#fff"/><path d="M41.826 9L34.321.75l.683-.75 7.505 8.25-.683.75z" fill="#fff"/><path d="M41.275 8.25L48.78 0l.682.75L41.959 9l-.683-.75z" fill="#fff"/><path d="M55.603 9L48.098.75 48.78 0l7.505 8.25-.682.75z" fill="#fff"/><path d="M54.998 8.25L62.503 0l.682.75L55.68 9l-.682-.75z" fill="#fff"/><path d="M69.325 9L61.82.75l.682-.75 7.505 8.25-.682.75z" fill="#fff"/><path d="M68.774 8.25L76.28 0l.682.75L69.456 9l-.682-.75z" fill="#fff"/><path d="M83.102 9L75.597.75l.682-.75 7.505 8.25-.682.75z" fill="#fff"/><path d="M82.496 8.25L90.001 0l.682.75L83.18 9l-.683-.75z" fill="#fff"/><path d="M96.824 9L89.319.75l.682-.75 7.505 8.25-.682.75z" fill="#fff"/><path d="M96.273 8.25L103.778 0l.682.75L96.955 9l-.682-.75z" fill="#fff"/><path d="M110.6 9L103.096.75l.682-.75 7.505 8.25-.683.75z" fill="#fff"/><path d="M109.995 8.25L117.5 0l.682.75L110.677 9l-.682-.75z" fill="#fff"/><path d="M124.323 9L116.818.75 117.5 0l7.505 8.25-.682.75z" fill="#fff"/><path d="M123.772 8.25L131.277 0l.682.75L124.454 9l-.682-.75z" fill="#fff"/><path d="M138.099 9L130.594.75l.683-.75 7.504 8.25-.682.75z" fill="#fff"/><path d="M137.494 8.25L144.999 0l.682.75L138.176 9l-.682-.75z" fill="#fff"/><path d="M151.821 9L144.317.75l.682-.75 7.505 8.25-.683.75z" fill="#fff"/><path d="M151.27 8.25L158.775 0l.683.75L151.953 9l-.683-.75z" fill="#fff"/><path d="M165.598 9L158.093.75l.682-.75 7.505 8.25-.682.75z" fill="#fff"/><path d="M164.993 8.25L172.498 0l.682.75L165.675 9l-.682-.75z" fill="#fff"/><path d="M179.32 9L171.815.75l.683-.75 7.504 8.25-.682.75z" fill="#fff"/><path d="M178.769 8.25L186.274 0l.682.75L179.451 9l-.682-.75z" fill="#fff"/><path d="M193.097 9L185.592.75l.682-.75 7.505 8.25-.682.75z" fill="#fff"/><path d="M192.491 8.25L199.996 0l.683.75L193.174 9l-.683-.75z" fill="#fff"/><path d="M206.819 9L199.314.75l.682-.75 7.505 8.25-.682.75z" fill="#fff"/><path d="M206.268 8.25L213.773 0l.682.75L206.95 9l-.682-.75z" fill="#fff"/><path d="M220.596 9L213.091.75l.682-.75 7.505 8.25-.682.75z" fill="#fff"/><path d="M219.99 8.25L227.495 0l.682.75L220.672 9l-.682-.75z" fill="#fff"/><path d="M234.318 9L226.813.75l.682-.75L235 8.25l-.682.75z" fill="#fff"/></svg>