<svg width="48" height="48" fill="none" xmlns="http://www.w3.org/2000/svg"><path d="M47.968 4.03c0-1.3-.6-2.399-1.6-3.198-.999-.8-2.298-1-3.497-.7L19.587 6.528c-1.799.5-2.998 2.099-2.998 3.897v21.686c-.9-.8-2.099-1.2-3.398-1.2-1.499 0-2.898.6-3.897 1.7-1-1.1-2.399-1.7-3.898-1.7A5.374 5.374 0 000 36.309C0 41.604 8.394 47.5 8.794 47.8c.1.1.3.2.5.2s.4-.1.6-.2c.899-.6 7.994-5.696 8.693-10.693 0-.1.1-.2.1-.4V16.722L45.97 9.326v15.29c-.9-.8-2.099-1.2-3.398-1.2-1.499 0-2.898.6-3.897 1.7-1-1.1-2.398-1.7-3.898-1.7a5.374 5.374 0 00-5.396 5.397c0 5.296 8.395 11.192 8.794 11.492.2.1.4.2.6.2.2 0 .4-.1.6-.2.699-.7 8.594-6.296 8.594-11.492V4.03zM9.294 45.8c-2.499-1.898-7.295-6.195-7.295-9.493a3.37 3.37 0 013.397-3.398c1.3 0 2.499.7 2.998 1.899.2.3.5.6.9.6s.7-.2.9-.6c.599-1.2 1.698-1.899 2.997-1.899a3.37 3.37 0 013.398 3.398c0 3.298-4.797 7.595-7.295 9.493zm9.293-31.079v-4.297c0-.899.6-1.698 1.5-1.998L43.37 2.13c.6-.2 1.299 0 1.798.3.5.4.8 1 .8 1.599v3.198l-27.382 7.495zm20.087 23.485c-2.498-1.8-7.295-6.096-7.295-9.394a3.37 3.37 0 013.397-3.398c1.3 0 2.499.7 2.998 1.899.2.3.5.6.9.6s.7-.2.9-.6c.599-1.2 1.698-1.899 2.997-1.899a3.37 3.37 0 013.398 3.398c0 3.298-4.797 7.595-7.295 9.394z" fill="#F15A22"/></svg>