<svg width="62" height="48" fill="none" xmlns="http://www.w3.org/2000/svg"><path d="M59.012 0H2.988C1.34 0 0 1.356 0 3.022v41.956C0 46.644 1.34 48 2.988 48h56.024C60.66 48 62 46.644 62 44.978V3.022C62 1.356 60.66 0 59.012 0zM47.45 45.653H14.34v-3.315c0-3.936 2.673-7.138 5.958-7.138h21.194c3.284 0 5.957 3.202 5.957 7.138v3.315zm12.231-.675c0 .372-.3.675-.668.675H49.77v-3.315c0-5.23-3.713-9.485-8.277-9.485H20.298c-4.565 0-8.278 4.255-8.278 9.485v3.315H2.988a.673.673 0 01-.668-.675V3.022c0-.372.3-.675.668-.675h56.024c.369 0 .668.303.668.675v41.956z" fill="#fff"/><path d="M44.813 10.453c-.053 0-.105.004-.158.004-.053 0-.105-.004-.158-.004H17.503c-.052 0-.105.004-.158.004-.052 0-.105-.004-.158-.004-5 0-9.068 4.116-9.068 9.174a9.21 9.21 0 00.763 3.678c1.366 3.465 4.714 5.922 8.621 5.922h26.994c3.907 0 7.255-2.457 8.62-5.922a9.21 9.21 0 00.764-3.678c0-5.058-4.068-9.174-9.068-9.174zm0 16c-3.721 0-6.748-3.062-6.748-6.826 0-3.71 2.942-6.737 6.59-6.823 3.764.086 6.8 3.208 6.8 7.036 0 .9-.169 1.76-.474 2.552-1.052 2.39-3.42 4.061-6.168 4.061zM38.763 12.8a9.198 9.198 0 00-3.018 6.827 9.198 9.198 0 003.526 7.253H22.73a9.198 9.198 0 003.526-7.253 9.199 9.199 0 00-3.018-6.827h15.527zm-28.219 7.04c0-3.828 3.037-6.95 6.801-7.036 3.648.086 6.59 3.112 6.59 6.823 0 3.764-3.027 6.826-6.748 6.826-2.748 0-5.116-1.671-6.168-4.061a7.073 7.073 0 01-.475-2.552z" fill="#fff"/></svg>