<svg width="34" height="48" fill="none" xmlns="http://www.w3.org/2000/svg"><path d="M20.119.012c-2.993 1.971-5.71 6.667-6.392 9.749-.421 2.03-.25 4.035.068 6.101-1.255-1.314-2.104-2.995-2.279-5.573a1.116 1.116 0 00-.674-.936 1.127 1.127 0 00-1.142.186C3.697 14.743 0 22.613 0 30.23c0 8.394 4.795 13.85 11.773 17.64.402.221.943.155 1.279-.157.335-.311.44-.843.246-1.258-.374-.817-.685-1.653-.685-2.59 0-3.041 1.933-6.22 4.387-7.653 2.456 1.432 4.387 4.61 4.387 7.653 0 .931-.313 1.773-.685 2.59-.194.415-.09.947.246 1.258.336.312.877.378 1.279.157C29.212 44.081 34 38.63 34 30.23c0-7.268-3.588-12.045-6.855-16.208-3.267-4.164-6.141-7.667-5.758-12.851.05-.655-.616-1.264-1.268-1.16zm-.823 3.818c.596 4.587 3.403 8.078 6.118 11.538 3.247 4.138 6.392 8.297 6.392 14.862 0 6.619-3.167 10.852-8.311 14.214.019-.2.086-.368.086-.579 0-4.156-2.51-8.238-6.118-9.937a1.118 1.118 0 00-.926 0c-3.605 1.7-6.118 5.782-6.118 9.937 0 .205.068.367.086.562-5.132-3.363-8.311-7.591-8.311-14.197 0-6.29 2.87-12.926 7.54-17.674.791 3.24 2.704 5.456 5.038 6.92a1.13 1.13 0 001.222-.025c.354-.247.536-.715.44-1.134-.668-3.15-1.061-5.654-.548-8.13.406-1.957 1.412-3.976 3.41-6.357z" fill="#fff"/></svg>