<svg width="34" height="48" fill="none" xmlns="http://www.w3.org/2000/svg"><path d="M29.004 0h-.042c-2.755 0-4.996 2.187-4.996 4.875V15.51a5.052 5.052 0 00-2.95-.944h-.042c-1.62 0-3.06.756-3.974 1.924a5.033 5.033 0 00-3.974-1.924h-.041a5.052 5.052 0 00-2.951.944v-5.049c0-2.688-2.241-4.875-4.996-4.875h-.042C2.241 5.587 0 7.774 0 10.462v17.19a.98.98 0 00.01.13v3.636C.01 35.83 1.782 39.989 5 43.13 8.22 46.27 12.483 48 17.005 48c4.522 0 8.785-1.73 12.004-4.87C32.227 39.99 34 35.83 34 31.418V4.875C34 2.187 31.759 0 29.004 0zM26.01 4.875c0-1.588 1.324-2.88 2.951-2.88h.042c1.627 0 2.95 1.292 2.95 2.88v21.16a8.363 8.363 0 00-5.943-2.776V4.875zm-5.037 11.687h.041c1.627 0 2.951 1.292 2.951 2.88v3.824h-4.75c-.412 0-.811.05-1.193.142v-3.966c0-1.588 1.323-2.88 2.95-2.88zm-7.99 0h.042c1.628 0 2.951 1.292 2.951 2.88v4.991a4.838 4.838 0 00-1.716 3.087 2.992 2.992 0 01-1.235.268h-.041c-1.627 0-2.951-1.291-2.951-2.88v-5.466c0-1.588 1.324-2.88 2.95-2.88zm18.97 14.856c0 3.879-1.56 7.537-4.392 10.3a15.031 15.031 0 01-10.557 4.287 15.03 15.03 0 01-10.558-4.286c-2.832-2.764-4.392-6.422-4.392-10.301v-6.12a.977.977 0 00-.01-.13V10.461c0-1.588 1.324-2.88 2.951-2.88h.042c1.627 0 2.95 1.292 2.95 2.88v14.447c0 2.688 2.242 4.875 4.997 4.875h.041c.477 0 .95-.07 1.405-.2.618 2.006 2.529 3.473 4.784 3.473h.847c-1.681 1.357-2.87 3.304-3.202 5.573a1.002 1.002 0 001.014 1.138c.5 0 .938-.359 1.01-.857.461-3.152 3.059-5.503 6.159-5.854h.082a.999.999 0 00.24-.03 7.205 7.205 0 011.483.053c.56.076 1.077-.302 1.157-.847a1.002 1.002 0 00-.869-1.129 9.299 9.299 0 00-2.203-.043h-5.718c-1.627 0-2.95-1.291-2.95-2.88v-.04c0-1.587 1.323-2.88 2.95-2.88h6.626c.044 0 .086-.003.129-.008 3.324.139 5.985 2.82 5.985 6.097v.068z" fill="#fff"/></svg>