<svg width="82" height="33" fill="none" xmlns="http://www.w3.org/2000/svg"><path d="M80.463 11.447h-5.339l-9.77-1.41L60.783.83A1.47 1.47 0 0059.467 0a1.47 1.47 0 00-1.318.832l-4.57 9.204-10.22 1.476c-.132.02-.255.058-.373.107a7.679 7.679 0 00-3.98.003 1.577 1.577 0 00-.386-.11l-10.218-1.477L23.835.83A1.47 1.47 0 0022.518 0 1.47 1.47 0 0021.2.832l-4.57 9.204-9.77 1.411H1.538C.175 11.447 0 11.458 0 12.973c0 1.532.21 1.525 1.538 1.525h4.573l6.881 6.67-1.744 10.117A1.444 1.444 0 0012.672 33l.405-.02 9.44-4.933 9.14 4.777.365.175h.34l.69-.02.413-.488a1.47 1.47 0 00.321-1.207l-1.744-10.117 6.701-6.493a4.94 4.94 0 014.472-.025l6.727 6.518-1.744 10.118c-.075.437.042.877.321 1.206.275.324.676.509 1.103.509l.406-.02 9.439-4.933 9.14 4.777.365.175h.34l.691-.02.412-.488a1.47 1.47 0 00.321-1.207l-1.744-10.117 6.882-6.67h4.588c1.328 0 1.538.008 1.538-1.524 0-1.515-.174-1.526-1.537-1.526zm-50.731 8.134a1.755 1.755 0 00-.497 1.52l1.395 8.09-7.31-3.82a1.808 1.808 0 00-1.606 0l-7.309 3.821 1.396-8.09a1.757 1.757 0 00-.497-1.52l-5.913-5.73 8.174-1.18a1.774 1.774 0 001.298-.939l3.655-7.36 3.653 7.362c.245.49.754.858 1.301.938l8.173 1.18-5.913 5.728zm36.95 0a1.755 1.755 0 00-.497 1.52l1.395 8.09-7.31-3.82a1.733 1.733 0 00-.802-.192 1.74 1.74 0 00-.804.192l-7.308 3.82 1.396-8.09a1.756 1.756 0 00-.497-1.52l-5.913-5.73 8.173-1.18a1.774 1.774 0 001.298-.939l3.655-7.362 3.654 7.364c.245.49.754.858 1.301.938l8.172 1.18-5.913 5.729z" fill="#fff"/></svg>