<svg width="25" height="25" fill="none" xmlns="http://www.w3.org/2000/svg"><path d="M10 9c-.551 0-1 .449-1 1 0 .551.449 1 1 1 .551 0 1-.449 1-1 0-.551-.449-1-1-1z" fill="#fff"/><path d="M16 10c0-1.383.747-2.653 1.948-3.307A3.698 3.698 0 0119 6.333C17.56 2.629 14.009 0 9.846 0 4.41 0 0 4.478 0 10s4.41 10 9.846 10a9.75 9.75 0 002.263-.276c.882-1.082 2.249-1.865 3.891-2.126V10zm-6.154 3.75c-2.035 0-3.692-1.683-3.692-3.75s1.657-3.75 3.692-3.75c2.036 0 3.693 1.683 3.693 3.75s-1.657 3.75-3.693 3.75z" fill="#231F20"/><path d="M24.456 11.67L20.79 9.206a1.219 1.219 0 00-1.901 1.023v9.997a5.21 5.21 0 00-1.222-.15c-2.026 0-3.667 1.1-3.667 2.461C14 23.9 15.64 25 17.667 25c2.02 0 3.662-1.1 3.666-2.457V12.532l1.766 1.187a1.217 1.217 0 001.694-.34 1.236 1.236 0 00-.337-1.71z" fill="#FFE556"/></svg>