<svg width="594" height="625" fill="none" xmlns="http://www.w3.org/2000/svg"><path d="M474.386 126.954c-38.009-2.025-90.82 20.967-116.078 42.989-16.399 14.699-27.565 32.893-37.862 52.563-2.448-19.139.881-38.854 15.633-61.988 2.316-3.614 2.371-8.556.138-12.248-2.234-3.692-6.648-5.957-10.942-5.613-84.106 6.618-165.303 50.541-213.301 115.621-52.894 71.717-46.28 148.557-10.507 224.945 2.044 4.419 7.09 7.264 11.921 6.72 4.832-.543 9.078-4.433 10.033-9.19 1.948-9.349 4.557-18.447 10.463-26.455 19.162-25.982 55.722-40.958 85.727-37.721 11.975 27.713 8.462 67.04-10.716 93.044-5.868 7.955-13.85 13.179-22.184 17.811-4.262 2.316-6.725 7.523-5.817 12.299.908 4.777 5.116 8.757 9.942 9.404 83.596 11.673 158.871-4.709 211.805-76.481 45.798-62.096 45.229-125.531 43.532-181.702-1.697-56.171-4.195-104.223 31.751-146.1 4.549-5.281 2.691-14.68-3.538-17.898zm-31.09 27.432c-23.813 42.949-21.815 90.479-20.405 137.156 1.687 55.826 2.366 111.191-39.003 167.281-41.708 56.551-95.461 72.745-160.624 69.039 1.428-1.596 3.053-2.606 4.384-4.411 26.188-35.508 30.451-86.203 10.31-123.469-1.626-2.962-4.601-5.156-7.912-5.835-41.534-8.205-88.734 10.822-114.914 46.32-1.294 1.754-1.734 3.564-2.812 5.345-22.683-61.094-23.217-117.267 18.406-173.703 39.638-53.744 105.993-92.341 175.833-103.461-13.653 32.672-11.26 63.663-.53 90.887 1.646 4.277 6.024 7.371 10.604 7.495 4.58.123 9.084-2.732 10.91-6.915 14.132-31.123 26.548-54.999 46.54-72.917 15.797-14.159 37.124-25.067 69.213-32.812z" fill="rgba(255, 229, 86, 0.08)"/></svg>