<svg width="931" height="578" fill="none" xmlns="http://www.w3.org/2000/svg"><path d="M880.888 354.467l-54.214-15.807-95.043-43.258-19.143-107.001c-1.076-5.959-5.257-10.68-10.92-12.331-5.663-1.651-11.717.085-15.842 4.548l-73.655 79.924-108.152-15.273c-1.4-.197-2.764-.172-4.104-.019a81.239 81.239 0 00-40.425-11.757c-1.08-.878-2.26-1.655-3.591-2.264l-99.394-45.242-19.127-106.986c-1.076-5.959-5.257-10.68-10.921-12.33-5.663-1.652-11.716.085-15.842 4.547l-73.654 79.924-103.389-14.598-54.047-15.758c-13.835-4.035-15.65-4.443-20.133 10.934-4.537 15.561-2.38 16.11 11.102 20.041l46.434 13.539 50.134 88.093-47.66 97.566c-2.061 4.219-2.179 9.035-.316 13.201a15.27 15.27 0 009.698 8.432l4.172 1.005 110.469-22.148 78.66 75.561 3.194 2.864 3.452 1.006 7.078 1.833 5.63-3.722c3.81-2.512 6.298-6.636 6.831-11.311l12.242-107.883 87.273-46.088c16.467-3.148 33.175 1.623 45.483 12.98l49.013 86.107-47.66 97.566c-2.06 4.219-2.179 9.034-.316 13.2a15.275 15.275 0 009.699 8.433l4.171 1.004 110.46-22.15 78.669 75.564 3.194 2.863 3.452 1.007 7.078 1.832 5.631-3.722c3.809-2.511 6.297-6.636 6.83-11.311L735.632 419.2l89.623-47.345 46.593 13.585c13.481 3.931 15.596 4.628 20.133-10.934 4.493-15.374 2.753-16.002-11.093-20.039zm-539.243-67.62c-5.148 2.725-8.898 8.193-9.55 13.97l-9.778 86.272-62.918-60.426c-4.136-3.973-10.676-5.88-16.318-4.758l-85.528 17.154 38.124-78.018c2.553-5.212 2.328-11.839-.548-16.903l-43.073-75.681 86.49 12.217c5.767.806 12.026-1.424 15.962-5.69l58.905-63.919 15.307 85.577c1.032 5.694 5.111 10.939 10.434 13.376l79.493 36.179-77.002 40.65zm375.219 109.402c-5.147 2.726-8.897 8.193-9.549 13.97l-9.778 86.272-62.916-60.435c-2.071-1.993-4.684-3.479-7.586-4.325-2.901-.846-5.904-.997-8.731-.433l-85.519 17.157 38.124-78.018c2.552-5.213 2.328-11.839-.548-16.904l-43.083-75.683 86.49 12.217c5.768.806 12.026-1.424 15.962-5.69l58.908-63.928 15.314 85.589c1.032 5.694 5.111 10.939 10.433 13.376l79.485 36.176-77.006 40.659z" fill="rgba(255, 229, 86, 0.08)"/></svg>