<svg width="577" height="502" fill="none" xmlns="http://www.w3.org/2000/svg"><path d="M446.484 6.694L22.604 132.216c-12.464 3.692-19.57 16.937-15.842 29.528l93.866 316.978c3.728 12.591 16.901 19.831 29.365 16.14l423.88-125.523c12.464-3.691 19.571-16.936 15.842-29.527L475.849 22.834c-3.728-12.591-16.901-19.831-29.365-16.14zm14.651 370.824l-250.499 74.18-7.417-25.046c-8.806-29.737 4.25-59.918 29.104-67.278l160.351-47.485c24.854-7.36 52.238 10.847 61.044 40.584l7.417 25.045zm91.029-32.509c.834 2.814-.755 5.776-3.541 6.601l-69.937 20.71-7.417-25.045c-11.701-39.514-49.313-63.341-83.845-53.115l-160.352 47.484c-34.532 10.226-53.105 50.692-41.404 90.206l7.417 25.045-68.342 20.238c-2.785.825-5.731-.794-6.564-3.608L24.313 156.547c-.834-2.815.755-5.776 3.541-6.601l423.88-125.523c2.786-.825 5.731.794 6.564 3.608l93.866 316.978z" fill="rgba(255, 229, 86, 0.08)"/><path d="M362.438 117.484c-.4.118-.79.26-1.187.385-.401.111-.805.205-1.206.323L155.817 178.67c-.401.119-.791.261-1.188.385-.401.112-.805.205-1.206.324-37.83 11.203-59.401 51.408-48.084 89.622a72.475 72.475 0 0014.002 26.077c18.088 23.121 48.916 34.181 78.477 25.427l204.228-60.478c29.561-8.754 49.397-34.816 51.978-64.058a72.489 72.489 0 00-2.454-29.497c-11.317-38.214-51.301-60.191-89.132-48.988zm35.797 120.882c-28.153 8.336-57.909-8.018-66.33-36.457-8.302-28.034 7.188-57.492 34.596-66.311 28.672-7.788 58.633 8.997 67.197 37.92a55.637 55.637 0 012.115 20.344c-2.608 20.412-16.785 38.346-37.578 44.504zm-76.314-89.6c-10.249 16.846-13.627 37.876-7.567 58.34 6.595 22.273 22.937 39.013 42.908 46.899l-125.159 37.063c12.457-17.489 17.049-40.428 10.453-62.701-6.06-20.464-20.346-36.263-38.113-44.812l117.478-34.789zM124.164 265.179c-8.564-28.922 7.426-59.314 35.715-68.394 27.791-7.527 56.823 8.747 65.125 36.78 8.421 28.44-7.631 58.359-35.784 66.696-20.793 6.157-42.449-1.165-55.751-16.866a55.64 55.64 0 01-9.305-18.216z" fill="rgba(255, 229, 86, 0.08)"/></svg>