<svg width="709" height="609" fill="none" xmlns="http://www.w3.org/2000/svg"><path d="M686.834 298.722c7.073-12.119 7.464-25.637 2.494-38.535-4.97-12.898-16.001-21.835-28.82-25.567l-252.024-67.095c-19.5-5.132-39.391 3.256-49.183 20.036l-118.053 202.29c-4.038-12.353-13.048-22.611-25.167-29.683-13.984-8.16-30.299-10.183-45.605-5.369-3.338-15.695-13.125-28.904-27.108-37.065-27.967-16.32-63.396-7.004-79.717 20.963-28.833 49.407 17.375 150.106 19.472 155.079.388 1.476 1.709 3.496 3.573 4.584 1.865 1.088 4.273 1.244 6.682 1.4 11.654-.697 105.586-9.615 139.313-52.417.544-.932 2.02-1.321 3.108-3.185l108.805-186.443 294.753 79.534-83.236 142.629c-4.038-12.354-13.048-22.611-25.167-29.683-13.983-8.161-30.298-10.184-45.605-5.37-3.338-15.694-13.125-28.904-27.108-37.064-27.966-16.321-63.396-7.004-79.717 20.962-28.833 49.408 17.376 150.106 19.473 155.079 1.32 2.02 2.641 4.041 4.505 5.129 1.864 1.088 4.273 1.244 6.681 1.399 10.334-2.717 114.444-11.943 142.734-60.418l134.917-231.19zM98.664 477.851c-12.968-31.312-34.322-97.511-16.369-128.274 10.337-17.712 32.48-23.535 50.192-13.198 12.119 7.072 19.498 20.126 17.63 34.032.233 3.885 1.397 8.314 5.126 10.49s7.614 1.944 11.654-.697c12.122-7.923 26.184-8.464 38.303-1.392 17.712 10.337 23.535 32.48 13.199 50.193-17.953 30.763-86.092 44.735-119.734 48.846zm255.888-239.325l23.393-40.085c4.896-8.39 14.842-12.584 24.864-10.484l251.48 68.028c6.681 1.399 12.119 7.072 15.148 12.589 2.485 6.449 2.017 13.674-1.247 19.267l-17.409 29.831-296.229-79.146zm59.53 328.42c-13.513-30.381-34.866-96.579-16.913-127.342 10.336-17.712 32.48-23.535 50.192-13.199 12.119 7.072 19.497 20.126 17.63 34.033.232 3.885 1.397 8.313 5.126 10.49 3.729 2.176 7.613 1.943 11.654-.698 12.121-7.922 26.184-8.463 38.303-1.391 17.712 10.336 23.535 32.48 13.198 50.192-17.953 30.763-86.092 44.735-119.19 47.915z" fill="rgba(255, 229, 86, 0.08)"/></svg>