<svg width="457" height="487" fill="none" xmlns="http://www.w3.org/2000/svg"><path d="M197.881 23.38l-.283.195c-18.796 12.892-23.862 38.288-11.294 56.611l49.734 72.506c-8.42-.17-17.024 2.21-24.551 7.372l-.282.194c-11.047 7.577-17.344 19.473-18.113 31.714-11.696-3.691-25.062-2.1-36.108 5.477l-.283.194c-7.527 5.163-12.845 12.333-15.718 20.249l-23.609-34.419c-12.568-18.324-38.084-22.742-56.88-9.85l-.283.194c-18.795 12.892-23.862 38.287-11.293 56.611l80.376 117.18c.207.303.438.581.678.846l16.996 24.779c20.63 30.076 52.172 50.134 88.817 56.48 36.645 6.346 73.817-1.813 104.668-22.974 30.851-21.162 51.848-52.902 59.124-89.373 7.276-36.472-.078-73.122-20.708-103.198l-17.608-25.67-11.006-16.045-95.494-139.222c-12.568-18.324-38.085-22.742-56.88-9.85zm2.376 47.236c-7.423-10.823-4.431-25.824 6.671-33.439l.283-.194c11.102-7.615 26.173-5.005 33.597 5.818l95.495 139.222 3.446 5.025c-17.588-4.302-36.975-1.609-53.533 8.888l-6.28-9.156-11.568-16.866-68.111-99.298zm20.278 103.245l.282-.194c11.102-7.615 26.174-5.005 33.598 5.818l11.568 16.865 6.316 9.208-32.413 22.233a42.277 42.277 0 00-7.476 6.546l-18.546-27.038c-7.424-10.823-4.431-25.823 6.671-33.438zm-54.504 37.384l.283-.193c11.102-7.615 26.174-5.006 33.597 5.817l23.339 34.027c-2.703 9.551-1.931 19.933 2.725 29.079a24.787 24.787 0 01-7.171 7.603l-.282.194c-11.102 7.615-26.174 5.005-33.598-5.819l-1.169-1.704-24.395-35.565c-7.423-10.823-4.431-25.823 6.671-33.439zm198.885 12.494c18.138 26.443 24.6 58.681 18.198 90.776-6.403 32.095-24.867 60.017-51.991 78.621-27.124 18.605-59.821 25.776-92.069 20.192-32.247-5.585-59.995-23.223-78.133-49.666l-28.614-41.715a7.823 7.823 0 00-.678-.846L62.871 220.857c-7.424-10.822-4.431-25.823 6.67-33.438l.283-.194c11.102-7.615 26.174-5.005 33.597 5.818l41.986 61.211 24.395 35.566 1.169 1.704c12.568 18.323 38.085 22.743 56.881 9.85l.282-.194a42.12 42.12 0 008.644-7.936c13.604 10.785 33.495 11.841 48.884 1.285l5.778-3.963c-5.124 17.119-4.135 35.957 4.212 52.974 2.007 4.092 7.021 5.717 11.199 3.631a8.687 8.687 0 001.04-.613c3.417-2.343 4.723-6.84 2.891-10.573-11.598-23.644-4.867-51.826 14.637-68.726l.565-.388a8.632 8.632 0 001.502-1.318 59.635 59.635 0 0110.359-6.585c4.172-2.096 5.936-7.096 3.93-11.186-2.007-4.092-7.021-5.717-11.199-3.631a77.043 77.043 0 00-15.231 10.015l-39.013 26.76c-11.102 7.615-26.174 5.006-33.598-5.818l-.189-.276c-7.424-10.822-4.431-25.823 6.671-33.438l45.206-31.007c.297-.205.572-.428.835-.661 23.328-14.612 54.019-8.789 69.341 13.55l.318.463z" fill="rgba(255, 229, 86, 0.08)"/></svg>